<?xml version="1.0" encoding="utf-8"?>
<!-- Generator: Adobe Illustrator 25.4.1, SVG Export Plug-In . SVG Version: 6.00 Build 0)  -->
<svg version="1.1" id="Capa_1" xmlns="http://www.w3.org/2000/svg" xmlns:xlink="http://www.w3.org/1999/xlink" x="0px" y="0px"
	 viewBox="0 0 512 512" style="enable-background:new 0 0 512 512;" xml:space="preserve">
<style type="text/css">
	.st0{fill:#333333;}
</style>
<path class="st0" d="M114.6,76.1c-15.1-20.2-43.7-24.4-64-9.3c-1.2,0.9-2.4,1.9-3.5,2.9c-17.6,16.2-19,43.5-4.8,62.8l91.8,123
	L41.8,379.6c-14.2,19.2-13.1,46.6,4.7,62.8c18.6,17,47.5,15.8,64.6-2.9c1-1.1,2-2.3,2.9-3.5l128.9-173.2c3.1-4.2,3.1-10,0-14.2
	L114.6,76.1z M470.2,379.6l-92.3-124.1l91.8-123c14.2-19.2,12.8-46.6-4.8-62.8c-18.6-17-47.5-15.8-64.6,2.9c-1,1.1-2,2.3-2.9,3.5
	l-128,172.1c-3.1,4.2-3.1,10,0,14.2L398,435.9c15.1,20.2,43.7,24.4,64,9.3c1.2-0.9,2.4-1.9,3.5-2.9
	C483.4,426.2,484.5,398.8,470.2,379.6z"/>
</svg>
